{
	"asset":{
		"generator":"Khronos glTF Blender I/O v3.5.30",
		"version":"2.0"
	},
	"extensionsUsed":[
		"KHR_materials_transmission",
		"KHR_materials_ior"
	],
	"scene":0,
	"scenes":[
		{
			"name":"Scene",
			"nodes":[
				0,
				1,
				2,
				3,
				4
			]
		}
	],
	"nodes":[
		{
			"mesh":0,
			"name":"Body",
			"rotation":[
				0.7071068286895752,
				0,
				0,
				0.7071068286895752
			],
			"scale":[
				7.262989044189453,
				15.438172340393066,
				7.262989044189453
			]
		},
		{
			"mesh":1,
			"name":"Back window",
			"rotation":[
				0.7071068286895752,
				0,
				0,
				0.7071068286895752
			],
			"scale":[
				7.262989044189453,
				15.438172340393066,
				7.262989044189453
			]
		},
		{
			"mesh":2,
			"name":"Front window",
			"rotation":[
				0.7071068286895752,
				0,
				0,
				0.7071068286895752
			],
			"scale":[
				7.262989044189453,
				15.438172340393066,
				7.262989044189453
			]
		},
		{
			"mesh":3,
			"name":"Floor",
			"scale":[
				8.106134414672852,
				3.0398004055023193,
				15.199002265930176
			],
			"translation":[
				0,
				-6.5,
				0
			]
		},
		{
			"mesh":4,
			"name":"Body.External",
			"rotation":[
				0.7071068286895752,
				0,
				0,
				0.7071068286895752
			],
			"scale":[
				7.338400840759277,
				15.598466873168945,
				7.338400840759277
			]
		}
	],
	"materials":[
		{
			"alphaMode":"BLEND",
			"doubleSided":true,
			"extensions":{
				"KHR_materials_transmission":{
					"transmissionFactor":1
				},
				"KHR_materials_ior":{
					"ior":1.4500000476837158
				}
			},
			"name":" Transparent",
			"pbrMetallicRoughness":{
				"baseColorFactor":[
					0.800000011920929,
					0.800000011920929,
					0.800000011920929,
					1
				],
				"roughnessFactor":0
			}
		},
		{
			"doubleSided":true,
			"name":"Material",
			"pbrMetallicRoughness":{
				"baseColorFactor":[
					0.800000011920929,
					0.800000011920929,
					0.800000011920929,
					1
				],
				"metallicFactor":0,
				"roughnessFactor":0.5
			}
		}
	],
	"meshes":[
		{
			"name":"Sphere",
			"primitives":[
				{
					"attributes":{
						"POSITION":0,
						"TEXCOORD_0":1,
						"NORMAL":2
					},
					"indices":3
				}
			]
		},
		{
			"name":"Sphere.001",
			"primitives":[
				{
					"attributes":{
						"POSITION":4,
						"TEXCOORD_0":5,
						"NORMAL":6
					},
					"indices":7,
					"material":0
				}
			]
		},
		{
			"name":"Sphere.002",
			"primitives":[
				{
					"attributes":{
						"POSITION":8,
						"TEXCOORD_0":9,
						"NORMAL":10
					},
					"indices":11,
					"material":0
				}
			]
		},
		{
			"name":"Cube",
			"primitives":[
				{
					"attributes":{
						"POSITION":12,
						"TEXCOORD_0":13,
						"NORMAL":14
					},
					"indices":15
				},
				{
					"attributes":{
						"POSITION":16,
						"TEXCOORD_0":17,
						"NORMAL":18
					},
					"indices":19,
					"material":1
				}
			]
		},
		{
			"name":"Sphere.023",
			"primitives":[
				{
					"attributes":{
						"POSITION":20,
						"TEXCOORD_0":21,
						"NORMAL":22
					},
					"indices":23
				}
			]
		}
	],
	"accessors":[
		{
			"bufferView":0,
			"componentType":5126,
			"count":594,
			"max":[
				0.9999997019767761,
				0.5555702447891235,
				0.9999993443489075
			],
			"min":[
				-0.9999990463256836,
				-0.5555702447891235,
				-1
			],
			"type":"VEC3"
		},
		{
			"bufferView":1,
			"componentType":5126,
			"count":594,
			"type":"VEC2"
		},
		{
			"bufferView":2,
			"componentType":5126,
			"count":594,
			"type":"VEC3"
		},
		{
			"bufferView":3,
			"componentType":5123,
			"count":2688,
			"type":"SCALAR"
		},
		{
			"bufferView":4,
			"componentType":5126,
			"count":460,
			"max":[
				0.8314694166183472,
				1,
				0.8314692974090576
			],
			"min":[
				-0.8314691781997681,
				0.5365384221076965,
				-0.8314695954322815
			],
			"type":"VEC3"
		},
		{
			"bufferView":5,
			"componentType":5126,
			"count":460,
			"type":"VEC2"
		},
		{
			"bufferView":6,
			"componentType":5126,
			"count":460,
			"type":"VEC3"
		},
		{
			"bufferView":7,
			"componentType":5123,
			"count":1920,
			"type":"SCALAR"
		},
		{
			"bufferView":8,
			"componentType":5126,
			"count":460,
			"max":[
				0.8314694166183472,
				-0.5365384221076965,
				0.8314692974090576
			],
			"min":[
				-0.8314691781997681,
				-1,
				-0.8314695954322815
			],
			"type":"VEC3"
		},
		{
			"bufferView":9,
			"componentType":5126,
			"count":460,
			"type":"VEC2"
		},
		{
			"bufferView":10,
			"componentType":5126,
			"count":460,
			"type":"VEC3"
		},
		{
			"bufferView":11,
			"componentType":5123,
			"count":1920,
			"type":"SCALAR"
		},
		{
			"bufferView":12,
			"componentType":5126,
			"count":135,
			"max":[
				0.7906210422515869,
				1,
				0.8962883949279785
			],
			"min":[
				-0.7906205654144287,
				-0.25432801246643066,
				-0.8962883949279785
			],
			"type":"VEC3"
		},
		{
			"bufferView":13,
			"componentType":5126,
			"count":135,
			"type":"VEC2"
		},
		{
			"bufferView":14,
			"componentType":5126,
			"count":135,
			"type":"VEC3"
		},
		{
			"bufferView":15,
			"componentType":5123,
			"count":558,
			"type":"SCALAR"
		},
		{
			"bufferView":16,
			"componentType":5126,
			"count":78,
			"max":[
				0.6127822995185852,
				1,
				0.8962883949279785
			],
			"min":[
				-0.6127821207046509,
				0.15368247032165527,
				-0.8962883949279785
			],
			"type":"VEC3"
		},
		{
			"bufferView":17,
			"componentType":5126,
			"count":78,
			"type":"VEC2"
		},
		{
			"bufferView":18,
			"componentType":5126,
			"count":78,
			"type":"VEC3"
		},
		{
			"bufferView":19,
			"componentType":5123,
			"count":306,
			"type":"SCALAR"
		},
		{
			"bufferView":20,
			"componentType":5126,
			"count":1650,
			"max":[
				0.9999997019767761,
				0.5932820439338684,
				0.9999993443489075
			],
			"min":[
				-0.9999990463256836,
				-0.6166219711303711,
				-1
			],
			"type":"VEC3"
		},
		{
			"bufferView":21,
			"componentType":5126,
			"count":1650,
			"type":"VEC2"
		},
		{
			"bufferView":22,
			"componentType":5126,
			"count":1650,
			"type":"VEC3"
		},
		{
			"bufferView":23,
			"componentType":5123,
			"count":6504,
			"type":"SCALAR"
		}
	],
	"bufferViews":[
		{
			"buffer":0,
			"byteLength":7128,
			"byteOffset":0,
			"target":34962
		},
		{
			"buffer":0,
			"byteLength":4752,
			"byteOffset":7128,
			"target":34962
		},
		{
			"buffer":0,
			"byteLength":7128,
			"byteOffset":11880,
			"target":34962
		},
		{
			"buffer":0,
			"byteLength":5376,
			"byteOffset":19008,
			"target":34963
		},
		{
			"buffer":0,
			"byteLength":5520,
			"byteOffset":24384,
			"target":34962
		},
		{
			"buffer":0,
			"byteLength":3680,
			"byteOffset":29904,
			"target":34962
		},
		{
			"buffer":0,
			"byteLength":5520,
			"byteOffset":33584,
			"target":34962
		},
		{
			"buffer":0,
			"byteLength":3840,
			"byteOffset":39104,
			"target":34963
		},
		{
			"buffer":0,
			"byteLength":5520,
			"byteOffset":42944,
			"target":34962
		},
		{
			"buffer":0,
			"byteLength":3680,
			"byteOffset":48464,
			"target":34962
		},
		{
			"buffer":0,
			"byteLength":5520,
			"byteOffset":52144,
			"target":34962
		},
		{
			"buffer":0,
			"byteLength":3840,
			"byteOffset":57664,
			"target":34963
		},
		{
			"buffer":0,
			"byteLength":1620,
			"byteOffset":61504,
			"target":34962
		},
		{
			"buffer":0,
			"byteLength":1080,
			"byteOffset":63124,
			"target":34962
		},
		{
			"buffer":0,
			"byteLength":1620,
			"byteOffset":64204,
			"target":34962
		},
		{
			"buffer":0,
			"byteLength":1116,
			"byteOffset":65824,
			"target":34963
		},
		{
			"buffer":0,
			"byteLength":936,
			"byteOffset":66940,
			"target":34962
		},
		{
			"buffer":0,
			"byteLength":624,
			"byteOffset":67876,
			"target":34962
		},
		{
			"buffer":0,
			"byteLength":936,
			"byteOffset":68500,
			"target":34962
		},
		{
			"buffer":0,
			"byteLength":612,
			"byteOffset":69436,
			"target":34963
		},
		{
			"buffer":0,
			"byteLength":19800,
			"byteOffset":70048,
			"target":34962
		},
		{
			"buffer":0,
			"byteLength":13200,
			"byteOffset":89848,
			"target":34962
		},
		{
			"buffer":0,
			"byteLength":19800,
			"byteOffset":103048,
			"target":34962
		},
		{
			"buffer":0,
			"byteLength":13008,
			"byteOffset":122848,
			"target":34963
		}
	],
	"buffers":[
		{
			"byteLength":135856,
			"uri":"data:application/octet-stream;base64,"
		}
	]
}
